<svg width="32" height="32" viewBox="0 0 32 32" fill="none" xmlns="http://www.w3.org/2000/svg">
  <defs>
    <!-- Main gradient for background -->
    <linearGradient id="bg-gradient" x1="0%" y1="0%" x2="100%" y2="100%">
      <stop offset="0%" style="stop-color:#1e3a8a;stop-opacity:1" />
      <stop offset="50%" style="stop-color:#3b82f6;stop-opacity:1" />
      <stop offset="100%" style="stop-color:#06b6d4;stop-opacity:1" />
    </linearGradient>
    
    <!-- Neural network lines gradient -->
    <linearGradient id="neural-gradient" x1="0%" y1="0%" x2="100%" y2="100%">
      <stop offset="0%" style="stop-color:#ffffff;stop-opacity:0.9" />
      <stop offset="100%" style="stop-color:#e0f2fe;stop-opacity:0.7" />
    </linearGradient>
    
    <!-- Glow effect -->
    <filter id="glow">
      <feGaussianBlur stdDeviation="2" result="coloredBlur"/>
      <feMerge> 
        <feMergeNode in="coloredBlur"/>
        <feMergeNode in="SourceGraphic"/>
      </feMerge>
    </filter>
  </defs>
  
  <!-- Background circle -->
  <circle cx="16" cy="16" r="16" fill="url(#bg-gradient)"/>
  
  <!-- Neural network structure (AI brain representation) -->
  
  <!-- Outer layer nodes -->
  <circle cx="8" cy="12" r="1.5" fill="url(#neural-gradient)" filter="url(#glow)"/>
  <circle cx="8" cy="20" r="1.5" fill="url(#neural-gradient)" filter="url(#glow)"/>
  <circle cx="24" cy="12" r="1.5" fill="url(#neural-gradient)" filter="url(#glow)"/>
  <circle cx="24" cy="20" r="1.5" fill="url(#neural-gradient)" filter="url(#glow)"/>
  
  <!-- Middle layer nodes -->
  <circle cx="13" cy="8" r="1.8" fill="url(#neural-gradient)" filter="url(#glow)"/>
  <circle cx="13" cy="16" r="2" fill="url(#neural-gradient)" filter="url(#glow)"/>
  <circle cx="13" cy="24" r="1.8" fill="url(#neural-gradient)" filter="url(#glow)"/>
  <circle cx="19" cy="8" r="1.8" fill="url(#neural-gradient)" filter="url(#glow)"/>
  <circle cx="19" cy="16" r="2" fill="url(#neural-gradient)" filter="url(#glow)"/>
  <circle cx="19" cy="24" r="1.8" fill="url(#neural-gradient)" filter="url(#glow)"/>
  
  <!-- Central AI core -->
  <circle cx="16" cy="16" r="2.5" fill="#ffffff" opacity="0.95" filter="url(#glow)"/>
  <circle cx="16" cy="16" r="1.5" fill="url(#bg-gradient)" opacity="0.8"/>
  
  <!-- Neural connections (lines) -->
  <g stroke="rgba(255,255,255,0.4)" stroke-width="0.8" opacity="0.7">
    <!-- Left to center connections -->
    <line x1="8" y1="12" x2="13" y2="8"/>
    <line x1="8" y1="12" x2="13" y2="16"/>
    <line x1="8" y1="20" x2="13" y2="16"/>
    <line x1="8" y1="20" x2="13" y2="24"/>
    
    <!-- Center to center connections -->
    <line x1="13" y1="8" x2="19" y2="8"/>
    <line x1="13" y1="16" x2="16" y2="16"/>
    <line x1="13" y1="16" x2="19" y2="16"/>
    <line x1="13" y1="24" x2="19" y2="24"/>
    
    <!-- Center to right connections -->
    <line x1="19" y1="8" x2="24" y2="12"/>
    <line x1="19" y1="16" x2="24" y2="12"/>
    <line x1="19" y1="16" x2="24" y2="20"/>
    <line x1="19" y1="24" x2="24" y2="20"/>
    
    <!-- Cross connections for complexity -->
    <line x1="13" y1="8" x2="19" y2="16"/>
    <line x1="13" y1="24" x2="19" y2="16"/>
  </g>
  
  <!-- Subtle outer ring -->
  <circle cx="16" cy="16" r="15.5" fill="none" stroke="rgba(255,255,255,0.2)" stroke-width="1"/>
</svg>
